<svg width="25" height="26" viewBox="0 0 25 26" fill="none" xmlns="http://www.w3.org/2000/svg">
<g filter="url(#filter0_d)">
<path d="M14.2154 17.3737V13.5892C14.2154 13.422 14.147 13.2615 14.0252 13.1432C13.9035 13.025 13.7383 12.9585 13.5661 12.9585H10.9687C10.7965 12.9585 10.6313 13.025 10.5095 13.1432C10.3877 13.2615 10.3193 13.422 10.3193 13.5892V17.3737C10.3193 17.541 10.2509 17.7014 10.1292 17.8197C10.0074 17.938 9.84226 18.0044 9.67006 18.0045L5.77443 18.0049C5.68915 18.005 5.6047 17.9887 5.52591 17.957C5.44712 17.9253 5.37553 17.8788 5.31522 17.8202C5.25491 17.7617 5.20707 17.6921 5.17444 17.6156C5.1418 17.5391 5.125 17.4571 5.125 17.3742V10.0845C5.125 9.99662 5.1439 9.90972 5.1805 9.82935C5.21709 9.74899 5.27057 9.67694 5.33751 9.61783L11.8306 3.8833C11.9501 3.77774 12.1058 3.71924 12.2674 3.71924C12.4289 3.71923 12.5847 3.77772 12.7042 3.88327L19.1982 9.61782C19.2651 9.67694 19.3186 9.74899 19.3552 9.82936C19.3918 9.90973 19.4107 9.99664 19.4107 10.0845V17.3742C19.4107 17.4571 19.3939 17.5391 19.3613 17.6156C19.3286 17.6921 19.2808 17.7617 19.2205 17.8202C19.1602 17.8788 19.0886 17.9253 19.0098 17.957C18.931 17.9887 18.8466 18.005 18.7613 18.005L14.8647 18.0045C14.6925 18.0044 14.5274 17.938 14.4056 17.8197C14.2838 17.7014 14.2154 17.541 14.2154 17.3737V17.3737Z" stroke="#FF7162" stroke-width="2" stroke-linecap="round" stroke-linejoin="round" shape-rendering="crispEdges"/>
</g>
<defs>
<filter id="filter0_d" x="0.125" y="0.719238" width="24.2857" height="24.2857" filterUnits="userSpaceOnUse" color-interpolation-filters="sRGB">
<feFlood flood-opacity="0" result="BackgroundImageFix"/>
<feColorMatrix in="SourceAlpha" type="matrix" values="0 0 0 0 0 0 0 0 0 0 0 0 0 0 0 0 0 0 127 0" result="hardAlpha"/>
<feOffset dy="2"/>
<feGaussianBlur stdDeviation="2"/>
<feComposite in2="hardAlpha" operator="out"/>
<feColorMatrix type="matrix" values="0 0 0 0 1 0 0 0 0 0.443137 0 0 0 0 0.384314 0 0 0 1 0"/>
<feBlend mode="normal" in2="BackgroundImageFix" result="effect1_dropShadow"/>
<feBlend mode="normal" in="SourceGraphic" in2="effect1_dropShadow" result="shape"/>
</filter>
</defs>
</svg>
