<svg width="20" height="20" viewBox="0 0 20 20" fill="none" xmlns="http://www.w3.org/2000/svg">
<path d="M12.2154 16.3737V12.5892C12.2154 12.422 12.147 12.2615 12.0252 12.1432C11.9035 12.025 11.7383 11.9585 11.5661 11.9585H8.96868C8.79646 11.9585 8.6313 12.025 8.50952 12.1432C8.38774 12.2615 8.31933 12.422 8.31933 12.5892V16.3737C8.31933 16.541 8.25093 16.7014 8.12917 16.8197C8.00741 16.938 7.84226 17.0044 7.67006 17.0045L3.77443 17.0049C3.68915 17.005 3.6047 16.9887 3.52591 16.957C3.44712 16.9253 3.37553 16.8788 3.31522 16.8202C3.25491 16.7617 3.20707 16.6921 3.17444 16.6156C3.1418 16.5391 3.125 16.4571 3.125 16.3742V9.08449C3.125 8.99662 3.1439 8.90972 3.1805 8.82935C3.21709 8.74899 3.27057 8.67694 3.33751 8.61783L9.83057 2.8833C9.9501 2.77774 10.1058 2.71924 10.2674 2.71924C10.4289 2.71923 10.5847 2.77772 10.7042 2.88327L17.1982 8.61782C17.2651 8.67694 17.3186 8.74899 17.3552 8.82936C17.3918 8.90973 17.4107 8.99664 17.4107 9.08452V16.3742C17.4107 16.4571 17.3939 16.5391 17.3613 16.6156C17.3286 16.6921 17.2808 16.7617 17.2205 16.8202C17.1602 16.8788 17.0886 16.9253 17.0098 16.957C16.931 16.9887 16.8466 17.005 16.7613 17.005L12.8647 17.0045C12.6925 17.0044 12.5274 16.938 12.4056 16.8197C12.2838 16.7014 12.2154 16.541 12.2154 16.3737V16.3737Z" stroke="#979797" stroke-width="2" stroke-linecap="round" stroke-linejoin="round"/>
</svg>
