<svg width="20" height="20" viewBox="0 0 20 20" fill="none" xmlns="http://www.w3.org/2000/svg">
  <path d="M6.87506 12.5C9.11872 12.5 10.9376 10.6812 10.9376 8.4375C10.9376 6.19384 9.11872 4.375 6.87506 4.375C4.6314 4.375 2.81256 6.19384 2.81256 8.4375C2.81256 10.6812 4.6314 12.5 6.87506 12.5Z" stroke="#979797" stroke-linecap="round" stroke-linejoin="round"/>
  <path d="M12.1416 4.52628C12.7004 4.36885 13.2864 4.33299 13.8602 4.4211C14.434 4.50922 14.9822 4.71928 15.468 5.03713C15.9538 5.35497 16.3658 5.77323 16.6763 6.26372C16.9868 6.75421 17.1886 7.30555 17.2681 7.8806C17.3476 8.45565 17.303 9.04106 17.1372 9.5974C16.9714 10.1537 16.6883 10.6681 16.307 11.1058C15.9256 11.5435 15.4549 11.8944 14.9266 12.1349C14.3982 12.3754 13.8244 12.4999 13.2439 12.5" stroke="#979797" stroke-linecap="round" stroke-linejoin="round"/>
  <path d="M1.24969 15.4216C1.88417 14.5191 2.72649 13.7825 3.70552 13.274C4.68454 12.7655 5.77155 12.5 6.87476 12.5C7.97797 12.5 9.065 12.7654 10.0441 13.2738C11.0231 13.7822 11.8655 14.5187 12.5 15.4212" stroke="#979797" stroke-linecap="round" stroke-linejoin="round"/>
  <path d="M13.2439 12.5C14.3472 12.4992 15.4345 12.7643 16.4136 13.2728C17.3928 13.7813 18.235 14.5182 18.8689 15.4212" stroke="#979797" stroke-linecap="round" stroke-linejoin="round"/>
</svg>
