<svg width="28" height="26" viewBox="0 0 28 26" fill="none" xmlns="http://www.w3.org/2000/svg">
  <path d="M14.4164 21.6062L21.1232 25.6005C21.9805 26.111 23.0449 25.3517 22.7905 24.411L20.8528 17.2457C20.7982 17.0461 20.8047 16.8361 20.8714 16.6398C20.9382 16.4436 21.0625 16.269 21.2301 16.1362L27.2444 11.4308C28.0346 10.8125 27.6267 9.57967 26.6114 9.51773L18.7572 9.03857C18.5456 9.02436 18.3427 8.95396 18.1721 8.83555C18.0015 8.71714 17.8701 8.5556 17.7934 8.36975L14.8641 1.43562C14.7844 1.23835 14.6429 1.06852 14.4581 0.948675C14.2734 0.828832 14.0542 0.764648 13.8298 0.764648C13.6053 0.764648 13.3862 0.828832 13.2014 0.948675C13.0167 1.06852 12.8751 1.23835 12.7955 1.43562L9.8662 8.36975C9.78945 8.5556 9.65811 8.71714 9.48748 8.83555C9.31685 8.95396 9.11394 9.02436 8.90238 9.03857L1.04814 9.51773C0.0328404 9.57967 -0.37504 10.8125 0.41521 11.4308L6.42948 16.1362C6.59708 16.269 6.72141 16.4436 6.78816 16.6398C6.85492 16.8361 6.86138 17.0461 6.80681 17.2457L5.00976 23.8907C4.70449 25.0195 5.98177 25.9307 7.01054 25.3181L13.2432 21.6062C13.4185 21.5013 13.622 21.4456 13.8298 21.4456C14.0376 21.4456 14.2411 21.5013 14.4164 21.6062V21.6062Z" fill="#E9C500"/>
</svg>
