<svg width="30" height="27" viewBox="0 0 30 27" fill="none" xmlns="http://www.w3.org/2000/svg">
  <path d="M15.5653 21.8416L22.2721 25.8358C23.1294 26.3464 24.1938 25.587 23.9394 24.6463L22.0017 17.481C21.9471 17.2815 21.9536 17.0715 22.0203 16.8752C22.0871 16.6789 22.2114 16.5044 22.379 16.3715L28.3933 11.6661C29.1835 11.0478 28.7757 9.81502 27.7604 9.75308L19.9061 9.27392C19.6946 9.25972 19.4917 9.18931 19.321 9.0709C19.1504 8.95249 19.0191 8.79095 18.9423 8.6051L16.013 1.67097C15.9334 1.4737 15.7918 1.30387 15.6071 1.18403C15.4223 1.06418 15.2032 1 14.9787 1C14.7543 1 14.5351 1.06418 14.3504 1.18403C14.1656 1.30387 14.0241 1.4737 13.9444 1.67097L11.0151 8.6051C10.9384 8.79095 10.807 8.95249 10.6364 9.0709C10.4658 9.18931 10.2629 9.25972 10.0513 9.27392L2.19707 9.75308C1.18177 9.81502 0.773886 11.0478 1.56414 11.6661L7.5784 16.3715C7.74601 16.5044 7.87034 16.6789 7.93709 16.8752C8.00384 17.0715 8.01031 17.2815 7.95574 17.481L6.15869 24.1261C5.85342 25.2549 7.1307 26.1661 8.15946 25.5534L14.3921 21.8416C14.5674 21.7367 14.7709 21.681 14.9787 21.681C15.1865 21.681 15.39 21.7367 15.5653 21.8416V21.8416Z" stroke="#E9C500" stroke-linecap="round" stroke-linejoin="round"/>
</svg>
