<svg t="1626770278609" class="icon" viewBox="0 0 1024 1024" version="1.1" xmlns="http://www.w3.org/2000/svg" p-id="2116" width="48" height="48"><path d="M512 12c-199.11 0-361.11 162-361.11 361.11 0 191.45 325.36 610.46 339.22 628.2a27.76 27.76 0 0 0 43.78 0c13.86-17.74 339.22-436.75 339.22-628.2C873.11 174 711.11 12 512 12z m0 926.54C409.87 803.08 206.44 505.87 206.44 373.11c0-168.48 137.08-305.55 305.56-305.55s305.56 137.07 305.56 305.55c0 132.76-203.43 429.97-305.56 565.43z" p-id="2117" fill="#979797"></path><path d="M512 178.67c-107.2 0-194.44 87.23-194.44 194.44S404.8 567.56 512 567.56s194.44-87.23 194.44-194.44S619.2 178.67 512 178.67zM512 512c-76.58 0-138.89-62.31-138.89-138.89S435.42 234.22 512 234.22s138.89 62.31 138.89 138.89S588.58 512 512 512z" p-id="2118" fill="#979797"></path></svg>